<svg xmlns="http://www.w3.org/2000/svg" xmlns:xlink="http://www.w3.org/1999/xlink" width="500" zoomAndPan="magnify" viewBox="0 0 375 374.999991" height="500" preserveAspectRatio="xMidYMid meet" version="1.2"><defs><clipPath id="20ffb717b9"><path d="M 30.339844 23.183594 L 344.660156 23.183594 L 344.660156 337.5 L 30.339844 337.5 Z M 30.339844 23.183594 "/></clipPath><clipPath id="b12e035245"><path d="M 187.5 23.183594 C 100.703125 23.183594 30.339844 93.546875 30.339844 180.339844 C 30.339844 267.136719 100.703125 337.5 187.5 337.5 C 274.296875 337.5 344.660156 267.136719 344.660156 180.339844 C 344.660156 93.546875 274.296875 23.183594 187.5 23.183594 Z M 187.5 23.183594 "/></clipPath><clipPath id="433606a0f8"><path d="M 0.339844 0.183594 L 314.660156 0.183594 L 314.660156 314.5 L 0.339844 314.5 Z M 0.339844 0.183594 "/></clipPath><clipPath id="75d7bc530f"><path d="M 157.5 0.183594 C 70.703125 0.183594 0.339844 70.546875 0.339844 157.339844 C 0.339844 244.136719 70.703125 314.5 157.5 314.5 C 244.296875 314.5 314.660156 244.136719 314.660156 157.339844 C 314.660156 70.546875 244.296875 0.183594 157.5 0.183594 Z M 157.5 0.183594 "/></clipPath><clipPath id="a21c71beb2"><rect x="0" width="315" y="0" height="315"/></clipPath></defs><g id="5eeb0d5c83"><g clip-rule="nonzero" clip-path="url(#20ffb717b9)"><g clip-rule="nonzero" clip-path="url(#b12e035245)"><g transform="matrix(1,0,0,1,30,23)"><g clip-path="url(#a21c71beb2)"><g clip-rule="nonzero" clip-path="url(#433606a0f8)"><g clip-rule="nonzero" clip-path="url(#75d7bc530f)"><path style=" stroke:none;fill-rule:nonzero;fill:#000000;fill-opacity:1;" d="M 0.339844 0.183594 L 314.660156 0.183594 L 314.660156 314.5 L 0.339844 314.5 Z M 0.339844 0.183594 "/></g></g></g></g></g></g><g style="fill:#fffcf7;fill-opacity:1;"><g transform="translate(57.826354, 223.21385)"><path style="stroke:none" d="M 2.464844 2.566406 C 1.300781 2.566406 0.351562 2.203125 -0.378906 1.472656 C -1.105469 0.742188 -1.472656 -0.203125 -1.472656 -1.371094 L -1.472656 -86.265625 C -1.472656 -87.429688 -1.105469 -88.378906 -0.378906 -89.105469 C 0.351562 -89.835938 1.300781 -90.199219 2.464844 -90.199219 L 35.875 -90.199219 C 37.507812 -90.199219 38.753906 -89.449219 39.609375 -87.949219 L 39.625 -87.921875 L 55.660156 -58.179688 L 53.402344 -56.960938 L 53.402344 -59.53125 L 55.042969 -59.53125 L 55.042969 -56.960938 L 52.742188 -55.828125 L 44.125 -73.34375 L 44.125 -86.265625 C 44.125 -87.378906 44.445312 -88.292969 45.09375 -89.007812 C 45.808594 -89.804688 46.75 -90.199219 47.925781 -90.199219 L 83.800781 -90.199219 C 84.964844 -90.199219 85.914062 -89.835938 86.640625 -89.105469 C 87.371094 -88.378906 87.738281 -87.429688 87.738281 -86.265625 L 87.738281 -1.371094 C 87.738281 -0.203125 87.371094 0.742188 86.640625 1.472656 C 85.914062 2.203125 84.964844 2.566406 83.800781 2.566406 L 50.253906 2.566406 C 48.621094 2.566406 47.375 1.816406 46.515625 0.316406 L 46.5 0.285156 L 30.054688 -30.277344 L 32.316406 -31.492188 L 32.316406 -28.925781 L 30.808594 -28.925781 L 30.808594 -31.492188 L 33.121094 -32.613281 L 42.003906 -14.28125 L 42.003906 -1.371094 C 42.003906 -0.203125 41.636719 0.742188 40.910156 1.472656 C 40.179688 2.203125 39.230469 2.566406 38.066406 2.566406 Z M 2.464844 -2.566406 L 38.066406 -2.566406 C 37.8125 -2.566406 37.550781 -2.429688 37.277344 -2.15625 C 37.003906 -1.882812 36.867188 -1.621094 36.867188 -1.371094 L 36.867188 -13.691406 L 39.433594 -13.691406 L 37.125 -12.574219 L 26.710938 -34.0625 L 33.847656 -34.0625 L 51.007812 -2.175781 L 48.746094 -0.957031 L 50.976562 -2.230469 C 50.949219 -2.28125 50.882812 -2.339844 50.773438 -2.40625 C 50.605469 -2.511719 50.429688 -2.566406 50.253906 -2.566406 L 83.800781 -2.566406 C 83.546875 -2.566406 83.285156 -2.429688 83.011719 -2.15625 C 82.738281 -1.882812 82.601562 -1.621094 82.601562 -1.371094 L 82.601562 -86.265625 C 82.601562 -86.011719 82.738281 -85.75 83.011719 -85.476562 C 83.285156 -85.203125 83.546875 -85.066406 83.800781 -85.066406 L 47.925781 -85.066406 C 48.277344 -85.066406 48.605469 -85.234375 48.910156 -85.574219 C 49.144531 -85.832031 49.261719 -86.0625 49.261719 -86.265625 L 49.261719 -73.941406 L 46.691406 -73.941406 L 48.996094 -75.074219 L 59.167969 -54.394531 L 51.867188 -54.394531 L 35.121094 -85.457031 L 37.382812 -86.675781 L 35.152344 -85.402344 C 35.179688 -85.351562 35.246094 -85.296875 35.351562 -85.226562 C 35.523438 -85.121094 35.695312 -85.066406 35.875 -85.066406 L 2.464844 -85.066406 C 2.71875 -85.066406 2.980469 -85.203125 3.253906 -85.476562 C 3.527344 -85.75 3.664062 -86.011719 3.664062 -86.265625 L 3.664062 -1.371094 C 3.664062 -1.621094 3.527344 -1.882812 3.253906 -2.15625 C 2.980469 -2.429688 2.71875 -2.566406 2.464844 -2.566406 Z M 2.464844 -2.566406 "/></g></g><g style="fill:#fffcf7;fill-opacity:1;"><g transform="translate(144.087174, 223.21385)"><path style="stroke:none" d="M 24.097656 2.566406 C 22.933594 2.566406 21.988281 2.203125 21.257812 1.472656 C 20.527344 0.742188 20.164062 -0.203125 20.164062 -1.371094 L 20.164062 -18.621094 L 22.730469 -18.621094 L 20.75 -16.984375 L -1.472656 -43.851562 L -1.472656 -86.265625 C -1.472656 -87.429688 -1.105469 -88.378906 -0.378906 -89.105469 C 0.351562 -89.835938 1.300781 -90.199219 2.464844 -90.199219 L 40.941406 -90.199219 C 42.105469 -90.199219 43.054688 -89.835938 43.785156 -89.105469 C 44.511719 -88.378906 44.878906 -87.429688 44.878906 -86.265625 L 44.878906 -55.320312 L 42.3125 -55.320312 L 44.414062 -56.792969 L 45.371094 -55.421875 L 43.269531 -53.949219 L 41.164062 -55.421875 L 42.125 -56.792969 L 44.226562 -55.320312 L 41.660156 -55.320312 L 41.660156 -86.265625 C 41.660156 -87.429688 42.023438 -88.378906 42.753906 -89.105469 C 43.484375 -89.835938 44.429688 -90.199219 45.597656 -90.199219 L 84.074219 -90.199219 C 85.238281 -90.199219 86.1875 -89.835938 86.914062 -89.105469 C 87.644531 -88.378906 88.011719 -87.429688 88.011719 -86.265625 L 88.011719 -43.851562 L 65.785156 -16.984375 L 63.808594 -18.621094 L 66.375 -18.621094 L 66.375 -1.371094 C 66.375 -0.257812 66.054688 0.660156 65.410156 1.375 C 64.691406 2.171875 63.75 2.566406 62.574219 2.566406 Z M 24.097656 -2.566406 L 62.574219 -2.566406 C 62.222656 -2.566406 61.894531 -2.398438 61.589844 -2.058594 C 61.359375 -1.800781 61.242188 -1.570312 61.242188 -1.371094 L 61.242188 -19.546875 L 83.464844 -46.410156 L 85.441406 -44.773438 L 82.875 -44.773438 L 82.875 -86.265625 C 82.875 -86.011719 83.011719 -85.75 83.285156 -85.476562 C 83.558594 -85.203125 83.820312 -85.066406 84.074219 -85.066406 L 45.597656 -85.066406 C 45.847656 -85.066406 46.113281 -85.203125 46.386719 -85.476562 C 46.660156 -85.75 46.796875 -86.011719 46.796875 -86.265625 L 46.796875 -54.507812 L 43.269531 -49.472656 L 39.742188 -54.507812 L 39.742188 -86.265625 C 39.742188 -86.011719 39.878906 -85.75 40.152344 -85.476562 C 40.425781 -85.203125 40.6875 -85.066406 40.941406 -85.066406 L 2.464844 -85.066406 C 2.71875 -85.066406 2.980469 -85.203125 3.253906 -85.476562 C 3.527344 -85.75 3.664062 -86.011719 3.664062 -86.265625 L 3.664062 -44.773438 L 1.09375 -44.773438 L 3.074219 -46.410156 L 25.296875 -19.546875 L 25.296875 -1.371094 C 25.296875 -1.621094 25.160156 -1.882812 24.886719 -2.15625 C 24.613281 -2.429688 24.351562 -2.566406 24.097656 -2.566406 Z M 24.097656 -2.566406 "/></g></g><g style="fill:#fffcf7;fill-opacity:1;"><g transform="translate(230.62184, 223.21385)"><path style="stroke:none" d="M 84.074219 -46.519531 C 85.238281 -46.519531 86.1875 -46.15625 86.914062 -45.425781 C 87.644531 -44.699219 88.011719 -43.75 88.011719 -42.585938 L 88.011719 -19.167969 C 88.011719 -12.351562 86.121094 -7.027344 82.339844 -3.195312 C 78.550781 0.648438 73.195312 2.566406 66.273438 2.566406 L 20.265625 2.566406 C 13.441406 2.566406 8.109375 0.652344 4.277344 -3.183594 C 0.445312 -7.015625 -1.472656 -12.34375 -1.472656 -19.167969 L -1.472656 -68.464844 C -1.472656 -75.386719 0.449219 -80.742188 4.289062 -84.53125 C 8.121094 -88.3125 13.445312 -90.199219 20.265625 -90.199219 L 66.273438 -90.199219 C 73.1875 -90.199219 78.542969 -88.308594 82.328125 -84.519531 C 86.117188 -80.730469 88.011719 -75.378906 88.011719 -68.464844 L 88.011719 -47.238281 C 88.011719 -46.074219 87.644531 -45.128906 86.914062 -44.398438 C 86.1875 -43.667969 85.238281 -43.304688 84.074219 -43.304688 L 45.597656 -43.304688 C 44.429688 -43.304688 43.484375 -43.667969 42.753906 -44.398438 C 42.023438 -45.128906 41.660156 -46.074219 41.660156 -47.238281 L 41.660156 -63.535156 L 44.226562 -63.535156 L 44.226562 -60.96875 L 42.3125 -60.96875 L 42.3125 -63.535156 L 44.878906 -63.535156 L 44.878906 -24.097656 L 42.3125 -24.097656 L 42.3125 -26.667969 L 44.226562 -26.667969 L 44.226562 -24.097656 L 41.660156 -24.097656 L 41.660156 -42.585938 C 41.660156 -43.75 42.023438 -44.699219 42.753906 -45.425781 C 43.484375 -46.15625 44.429688 -46.519531 45.597656 -46.519531 Z M 84.074219 -41.386719 L 45.597656 -41.386719 C 45.847656 -41.386719 46.113281 -41.523438 46.386719 -41.796875 C 46.660156 -42.070312 46.796875 -42.332031 46.796875 -42.585938 L 46.796875 -21.53125 L 39.742188 -21.53125 L 39.742188 -66.101562 L 46.796875 -66.101562 L 46.796875 -47.238281 C 46.796875 -47.492188 46.660156 -47.753906 46.386719 -48.027344 C 46.113281 -48.300781 45.847656 -48.4375 45.597656 -48.4375 L 84.074219 -48.4375 C 83.820312 -48.4375 83.558594 -48.300781 83.285156 -48.027344 C 83.011719 -47.753906 82.875 -47.492188 82.875 -47.238281 L 82.875 -68.464844 C 82.875 -73.960938 81.484375 -78.105469 78.699219 -80.890625 C 75.914062 -83.671875 71.769531 -85.066406 66.273438 -85.066406 L 20.265625 -85.066406 C 14.851562 -85.066406 10.726562 -83.667969 7.894531 -80.875 C 5.074219 -78.09375 3.664062 -73.957031 3.664062 -68.464844 L 3.664062 -19.167969 C 3.664062 -13.761719 5.078125 -9.644531 7.910156 -6.8125 C 10.738281 -3.984375 14.859375 -2.566406 20.265625 -2.566406 L 66.273438 -2.566406 C 71.765625 -2.566406 75.902344 -3.980469 78.683594 -6.800781 C 81.480469 -9.632812 82.875 -13.753906 82.875 -19.167969 L 82.875 -42.585938 C 82.875 -42.332031 83.011719 -42.070312 83.285156 -41.796875 C 83.558594 -41.523438 83.820312 -41.386719 84.074219 -41.386719 Z M 84.074219 -41.386719 "/></g></g></g></svg>